<svg width="20" height="24" viewBox="0 0 20 24" fill="none" xmlns="http://www.w3.org/2000/svg">
<path d="M11.2518 11.8441C10.9177 11.5095 10.468 11.3221 9.99957 11.3221C9.53116 11.3221 9.08148 11.5095 8.74735 11.8441C8.74735 11.8441 7.76425 12.846 7.48407 13.0714L8.34428 24H11.6622L12.5225 13.079C12.3602 12.9888 11.2518 11.8441 11.2518 11.8441Z" fill="#FF7010"/>
<path d="M5.03124 11.7314C4.71264 11.4136 4.28911 11.2284 3.8436 11.2122C3.39808 11.196 2.96268 11.3499 2.62265 11.6437L0.902222 13.1165L2.55874 22.4621C2.63485 22.8917 2.85675 23.2804 3.18563 23.5602C3.5145 23.84 3.92942 23.993 4.35781 23.9925H7.36118L6.50589 13.1341C6.31172 13.0589 5.03124 11.7314 5.03124 11.7314Z" fill="#FF7010"/>
<path d="M9.60264 2.0101C9.72953 2.06141 9.86433 2.0894 10.0008 2.09276C10.1716 2.09699 10.3405 2.05579 10.4909 1.97321C10.6414 1.89064 10.7681 1.76954 10.8586 1.62185C10.971 1.45158 11.0309 1.25096 11.0306 1.04574C11.03 0.886249 10.9938 0.728988 10.9247 0.585902C10.8555 0.442816 10.7553 0.317669 10.6316 0.219968C10.5079 0.122268 10.364 0.0545834 10.2108 0.0220571C10.0576 -0.0104693 9.89915 -0.00698213 9.74747 0.0322539C9.59578 0.0714898 9.45487 0.145443 9.33543 0.248494C9.21599 0.351545 9.12116 0.480984 9.05816 0.626978C8.99515 0.772972 8.96562 0.931681 8.97181 1.09105C8.97801 1.25041 9.01975 1.40625 9.09389 1.54671C9.20912 1.75377 9.38785 1.91657 9.60264 2.0101Z" fill="#FF7010"/>
<path d="M15.9314 6.38354L15.6512 6.31591L15.5824 6.03036C15.1424 4.27698 13.5768 2.85173 11.5492 2.36579C11.3654 2.60327 11.1291 2.7931 10.8595 2.91977C10.59 3.04645 10.2949 3.10639 9.99835 3.0947C9.175 3.0947 8.49421 2.40587 8.45489 2.35828C6.4297 2.84421 4.86412 4.25443 4.42664 6.01783L4.36028 6.31591L4.07764 6.39105C2.89408 6.70564 1.87366 7.47019 1.22597 8.52764C0.578284 9.5851 0.352503 10.8552 0.595008 12.077L1.98855 10.8822C2.51511 10.4279 3.18895 10.19 3.87842 10.2151C4.56788 10.2401 5.22342 10.5262 5.71695 11.0175L6.94583 12.2298L8.07148 11.1202C8.32386 10.8625 8.6245 10.6592 8.95552 10.5224C9.28654 10.3856 9.64118 10.318 9.99835 10.3236C10.7239 10.3284 11.4192 10.6203 11.9375 11.1377L13.0386 12.2348L14.2945 11.0049C14.7886 10.5186 15.4423 10.2364 16.1289 10.2133C16.8155 10.1902 17.486 10.4276 18.0106 10.8797L19.4017 12.077C19.6486 10.8556 19.4263 9.58422 18.7806 8.52492C18.135 7.46562 17.1151 6.69916 15.9314 6.38354Z" fill="#FF7010"/>
<path d="M14.9753 11.7163C14.9753 11.7163 13.653 13.0539 13.5006 13.114L12.6429 23.9925H15.6512C16.0796 23.993 16.4945 23.84 16.8234 23.5602C17.1522 23.2804 17.3741 22.8917 17.4502 22.462L18.2736 17.8181L19.092 13.1165L17.3716 11.6362C17.033 11.3454 16.6008 11.1928 16.1583 11.2076C15.7159 11.2224 15.2944 11.4036 14.9753 11.7163Z" fill="#FF7010"/>
</svg>
