<svg width="14" height="24" viewBox="0 0 14 24" fill="none" xmlns="http://www.w3.org/2000/svg">
<path d="M7.82895 4.88496V2.76106L12.2881 1.70124C12.7205 1.59848 12.9816 1.15788 12.8642 0.729266C12.7527 0.322055 12.3393 0.0757875 11.9281 0.171614L6.94409 1.33312C6.49137 1.43862 6.17105 1.84218 6.17105 2.30702V4.88496H1C0.447716 4.88496 0 5.33267 0 5.88496V8.33628H14V5.88496C14 5.33267 13.5523 4.88496 13 4.88496H7.82895Z" fill="#FF7010"/>
<path d="M0.0644836 9.6637L1.97106 22.6195C2.08159 23.4159 2.80001 24 3.60133 24H10.3158C11.1447 24 11.8355 23.4159 11.9461 22.6195L13.8526 9.6637H0.0644836Z" fill="#FF7010"/>
</svg>
