<svg width="24" height="24" viewBox="0 0 24 24" fill="none" xmlns="http://www.w3.org/2000/svg">
<path d="M19.6163 17.2538C19.6787 17.9016 19.4511 18.5372 18.9911 18.9976C18.5311 19.458 17.8972 19.6856 17.2485 19.6237C16.7103 19.5717 16.1962 19.8681 15.9718 20.3615C15.702 20.9542 15.1869 21.3905 14.5588 21.559C13.9301 21.7273 13.2665 21.6074 12.7374 21.2293C12.6474 21.165 12.55 21.1173 12.45 21.0792V24C16.535 23.8483 20.103 21.644 22.1546 18.3884L19.6302 16.9296C19.6131 17.0354 19.6057 17.1436 19.6163 17.2538Z" fill="#FF7010"/>
<path d="M10.0049 21.6335C9.8168 21.6335 9.62754 21.609 9.44122 21.559C8.81309 21.3907 8.29805 20.9543 8.02823 20.3618C7.80352 19.868 7.28877 19.5721 6.75118 19.6237C6.10196 19.685 5.46856 19.4579 5.00889 18.9977C4.54893 18.5373 4.32129 17.9016 4.38369 17.2537C4.39428 17.1436 4.38688 17.0353 4.36978 16.9296L1.84541 18.3884C3.89704 21.644 7.46499 23.8483 11.55 24V21.0793C11.45 21.1173 11.3526 21.165 11.2626 21.2293C10.8902 21.4952 10.4511 21.6335 10.0049 21.6335Z" fill="#FF7010"/>
<path d="M9.67412 3.31104C9.30644 3.40972 9.00527 3.66499 8.84736 4.01176C8.46357 4.85528 7.58144 5.3626 6.66503 5.27301C6.28564 5.2365 5.91445 5.36979 5.6455 5.63928C5.37626 5.90863 5.24296 6.28061 5.27958 6.65978C5.30877 6.96313 5.26801 7.2596 5.1777 7.53732L11.55 11.2199V3.85454C11.2646 3.79397 10.9877 3.68108 10.7399 3.50415C10.4303 3.28274 10.0415 3.2128 9.67412 3.31104ZM9.80024 8.18621C9.12099 8.57874 8.25241 8.34579 7.86027 7.66591C7.46813 6.98602 7.70082 6.11665 8.38007 5.72412C9.05932 5.33159 9.92786 5.56454 10.32 6.24441C10.7122 6.92431 10.4794 7.79368 9.80024 8.18621Z" fill="#FF7010"/>
<path d="M3.64629 15.9753C3.05449 15.7056 2.61855 15.1903 2.4501 14.5615C2.28164 13.9327 2.40176 13.268 2.77969 12.7381C3.09434 12.2966 3.09434 11.7034 2.77969 11.2621C2.40176 10.732 2.28164 10.0674 2.4501 9.43851C2.61855 8.80979 3.05449 8.29441 3.64629 8.02462C3.74692 7.97874 3.83687 7.91826 3.91978 7.85056L1.39351 6.39062C0.505408 8.0662 0 9.97479 0 12C0 14.0253 0.505408 15.9339 1.39351 17.6094L3.91985 16.1495C3.8369 16.0817 3.74692 16.0212 3.64629 15.9753Z" fill="#FF7010"/>
<path d="M14.5588 2.44101C15.1869 2.60933 15.702 3.04569 15.9718 3.63819C16.1962 4.13202 16.7103 4.42849 17.2488 4.3763C17.896 4.31398 18.5314 4.54213 18.9911 5.00238C19.4511 5.46278 19.6787 6.09839 19.6163 6.74632C19.6057 6.85647 19.6131 6.96472 19.6302 7.07047L22.1546 5.61164C20.103 2.35604 16.535 0.151737 12.45 0V2.92078C12.55 2.88273 12.6474 2.83502 12.7374 2.77077C13.2665 2.39262 13.9301 2.27225 14.5588 2.44101Z" fill="#FF7010"/>
<path d="M3.31935 14.3282C3.41778 14.6961 3.67296 14.9977 4.01954 15.1555C4.29651 15.2818 4.5326 15.4654 4.72776 15.6825L11.1001 12L4.72772 8.31738C4.5326 8.5345 4.29647 8.71801 4.01954 8.84433C3.67296 9.00224 3.41778 9.30385 3.31935 9.67173C3.22091 10.0396 3.29122 10.4286 3.51212 10.7387C4.0503 11.4931 4.0503 12.5068 3.51212 13.2614C3.29122 13.5713 3.22091 13.9603 3.31935 14.3282ZM6.18033 10.5785C6.96465 10.5785 7.60046 11.2149 7.60046 12C7.60046 12.785 6.96465 13.4214 6.18033 13.4214C5.39598 13.4214 4.76017 12.785 4.76017 12C4.76017 11.2149 5.39598 10.5785 6.18033 10.5785Z" fill="#FF7010"/>
<path d="M1.84541 5.61164L4.36978 7.07045C4.38692 6.96466 4.39428 6.85638 4.38369 6.74618C4.32129 6.09839 4.54893 5.46278 5.00889 5.00238C5.46885 4.54198 6.10284 4.31427 6.75147 4.3763C7.28789 4.42923 7.80381 4.13173 8.02823 3.63849C8.29805 3.04583 8.81309 2.60948 9.44122 2.44101C10.0696 2.27254 10.7332 2.39262 11.2626 2.77077C11.3526 2.83502 11.45 2.88273 11.55 2.92078V0C7.46499 0.151737 3.89704 2.35604 1.84541 5.61164Z" fill="#FF7010"/>
<path d="M22.6065 6.39062L20.0802 7.85058C20.1631 7.91832 20.2531 7.97885 20.3537 8.02476C20.9455 8.29441 21.3814 8.80979 21.5499 9.43851C21.7184 10.0674 21.5982 10.732 21.2203 11.2619C20.9057 11.7034 20.9057 12.2966 21.2203 12.738C21.5982 13.268 21.7184 13.9327 21.5499 14.5615C21.3814 15.1903 20.9455 15.7056 20.3537 15.9754C20.2531 16.0213 20.1631 16.0818 20.0802 16.1495L22.6065 17.6094C23.4946 15.9339 24 14.0253 24 12C24 9.97479 23.4946 8.0662 22.6065 6.39062Z" fill="#FF7010"/>
<path d="M5.27958 17.34C5.24296 17.7193 5.37626 18.0913 5.6455 18.3606C5.91445 18.63 6.28886 18.7622 6.66474 18.7269C7.58935 18.6372 8.46386 19.1451 8.84736 19.9881C9.00527 20.3348 9.30644 20.5902 9.67412 20.6889C10.0412 20.7874 10.4303 20.7172 10.7399 20.4958C10.9877 20.3188 11.2646 20.2059 11.55 20.1453V12.78L5.1777 16.4626C5.26801 16.7402 5.30877 17.0367 5.27958 17.34ZM7.86027 16.334C8.25241 15.6541 9.12099 15.4211 9.80024 15.8137C10.4794 16.2062 10.7122 17.0756 10.32 17.7555C9.92786 18.4354 9.05932 18.6683 8.38007 18.2758C7.70082 17.8832 7.46813 17.0139 7.86027 16.334Z" fill="#FF7010"/>
<path d="M14.3259 20.6889C14.6936 20.5902 14.9947 20.3349 15.1526 19.9881C15.5364 19.1448 16.4186 18.6388 17.335 18.7269C17.7132 18.7619 18.0855 18.6298 18.3545 18.3606C18.6237 18.0913 18.757 17.7193 18.7204 17.3401C18.6912 17.0368 18.732 16.7403 18.8223 16.4626L12.45 12.78V20.1453C12.7354 20.2059 13.0123 20.3188 13.2601 20.4958C13.57 20.7173 13.9591 20.7875 14.3259 20.6889ZM14.1998 15.8137C14.879 15.4211 15.7476 15.6541 16.1397 16.334C16.5319 17.0139 16.2992 17.8832 15.6199 18.2758C14.9407 18.6683 14.0721 18.4354 13.68 17.7555C13.2878 17.0756 13.5205 16.2062 14.1998 15.8137Z" fill="#FF7010"/>
<path d="M20.6807 9.67171C20.5822 9.30383 20.327 9.00223 19.9805 8.84446C19.7035 8.71809 19.4674 8.53453 19.2723 8.31738L12.8999 11.9999L19.2723 15.6825C19.4674 15.4654 19.7035 15.2819 19.9805 15.1556C20.327 14.9977 20.5822 14.6961 20.6807 14.3282C20.7791 13.9603 20.7088 13.5713 20.4879 13.2612C19.9497 12.5068 19.9497 11.4931 20.4879 10.7385C20.7088 10.4286 20.7791 10.0396 20.6807 9.67171ZM17.8197 13.4214C17.0354 13.4214 16.3995 12.785 16.3995 11.9999C16.3995 11.2149 17.0354 10.5784 17.8197 10.5784C18.604 10.5784 19.2398 11.2149 19.2398 11.9999C19.2398 12.785 18.604 13.4214 17.8197 13.4214Z" fill="#FF7010"/>
<path d="M18.7204 6.65999C18.757 6.28068 18.6237 5.90869 18.3545 5.63934C18.0855 5.37 17.7108 5.23686 17.3353 5.27308C16.4109 5.36179 15.5361 4.85505 15.1526 4.01182C14.9947 3.6652 14.6936 3.40978 14.3259 3.31111C13.9588 3.21272 13.57 3.28281 13.2601 3.50421C13.0123 3.68115 12.7354 3.79403 12.45 3.8546V11.2199L18.8223 7.53741C18.732 7.25972 18.6912 6.96328 18.7204 6.65999ZM16.1397 7.66598C15.7476 8.34585 14.879 8.5788 14.1998 8.18627C13.5205 7.79374 13.2878 6.92437 13.68 6.24448C14.0721 5.5646 14.9407 5.33165 15.6199 5.72418C16.2992 6.11671 16.5319 6.98608 16.1397 7.66598Z" fill="#FF7010"/>
</svg>
