<svg width="24" height="16" viewBox="0 0 24 16" fill="none" xmlns="http://www.w3.org/2000/svg">
<path d="M23.9855 3.81606C23.9615 1.98344 22.4681 0.5 20.6358 0.5C18.9988 0.5 17.6332 1.68435 17.3434 3.24376C16.7679 3.49922 15.7683 3.90775 15.1727 4.0072C14.4545 4.12698 13.5866 4.16303 12.5931 4.11404C10.6954 4.02051 8.80078 3.40051 7.11401 2.32061C4.99145 0.961945 3.18365 0.644 1.25226 1.28969C0.503174 1.54016 0 2.24722 0 3.04948C0 3.30938 0.140808 3.54858 0.367126 3.67298C0.625854 3.81495 0.867736 3.93769 1.10175 4.05618C2.36938 4.69854 3.06775 5.05235 3.53045 7.00217C3.87616 8.45806 4.48096 9.67846 5.32837 10.6291C5.68799 11.0327 6.09228 11.3887 6.53741 11.6952H16.1603C17.614 10.5999 18.5039 8.93849 18.7485 6.84375C18.8954 5.5862 18.772 4.48985 18.6859 3.94952C18.6896 3.9205 18.6919 3.89111 18.6919 3.86098C18.6919 2.7905 19.5639 1.91966 20.6358 1.91966C21.7075 1.91966 22.5796 2.7905 22.5796 3.86098C22.5796 3.89481 22.582 3.92863 22.5868 3.96209C22.5877 3.96912 22.6653 4.67303 22.2317 5.17823C21.8763 5.5923 21.2485 5.80229 20.3657 5.80229C19.9773 5.80229 19.6626 6.12005 19.6626 6.51213C19.6626 6.90401 19.9773 7.22196 20.3657 7.22196C21.6747 7.22196 22.6602 6.84708 23.2945 6.10767C24.0725 5.20116 24.0154 4.09907 23.9855 3.81606Z" fill="#FF7010"/>
<path d="M6.54126 13.1147C6.50208 13.2675 6.48138 13.4278 6.48138 13.5927V14.7902C6.48138 15.1821 6.79614 15.5 7.18433 15.5H15.5581C15.9463 15.5 16.2612 15.1821 16.2612 14.7902V13.5927C16.2612 13.4278 16.2404 13.2675 16.2012 13.1147H6.54126Z" fill="#FF7010"/>
</svg>
