<svg width="20" height="24" viewBox="0 0 20 24" fill="none" xmlns="http://www.w3.org/2000/svg">
<path d="M4.79871 0C4.57711 0 4.41171 0.178783 4.39871 0.400006V6.4711C4.80088 6.61624 5.11279 6.97066 5.18308 7.40939C5.18588 7.42466 5.3455 8.32001 5.99871 9.26252V0.400006C5.99871 0.178405 5.82031 0 5.59871 0H4.79871ZM14.3987 0C14.1771 0 14.0117 0.178783 13.9987 0.400006V9.2586C14.6559 8.30847 14.8167 7.40154 14.8167 7.40154C14.8894 6.96691 15.1994 6.61559 15.5987 6.4711V0.400006C15.5987 0.178405 15.4203 0 15.1987 0H14.3987ZM7.19871 1.60002C6.97711 1.60002 6.79871 1.7784 6.79871 1.99998V10.1633C7.20828 10.5191 7.7188 10.8211 8.39871 11.0047V1.99998C8.39871 1.7784 8.22031 1.60002 7.99871 1.60002H7.19871ZM11.9987 1.60002C11.7771 1.60002 11.5987 1.7784 11.5987 1.99998V11.0047C12.2788 10.8208 12.7893 10.518 13.1987 10.1617V1.99998C13.1987 1.7784 13.0203 1.60002 12.7987 1.60002H11.9987ZM2.39871 3.2C2.17711 3.2 1.99871 3.37841 1.99871 3.60001V6.39922H3.59871V3.60001C3.59871 3.37841 3.42031 3.2 3.19871 3.2H2.39871ZM9.59871 3.2C9.37711 3.2 9.19871 3.37841 9.19871 3.60001V11.1562C9.44691 11.1844 9.71261 11.1999 9.99793 11.1999C10.2841 11.1999 10.5499 11.1845 10.7987 11.1562V3.60001C10.7987 3.37841 10.6203 3.2 10.3987 3.2H9.59871ZM16.7987 3.2C16.5771 3.2 16.3987 3.37841 16.3987 3.60001V6.39922H17.9987V3.60001C17.9987 3.37841 17.8203 3.2 17.5987 3.2H16.7987ZM0.398707 7.19923C0.157875 7.20008 -0.0276252 7.41194 0.00339486 7.65077L2.00262 22.8484C2.07337 23.4438 2.53817 24 3.19793 24H16.7987C17.4568 24 17.9213 23.4451 17.994 22.8516L19.9964 7.65077C20.0275 7.4107 19.84 7.19819 19.5979 7.19923H15.9987C15.803 7.20023 15.6367 7.34269 15.6057 7.53594C15.6057 7.53594 15.4166 8.64644 14.6221 9.76795C13.8277 10.8895 12.4756 12 9.99871 12C7.52179 12 6.1689 10.8895 5.37449 9.76795C4.58009 8.64644 4.39402 7.53594 4.39402 7.53594C4.3629 7.34179 4.19532 7.19908 3.99871 7.19923H0.398707ZM9.99871 14.8008C11.7613 14.8008 13.1987 16.2359 13.1987 17.9984C13.1987 19.761 11.7613 21.1992 9.99871 21.1992C8.23612 21.1992 6.79714 19.761 6.79714 17.9984C6.79714 16.2359 8.23612 14.8008 9.99871 14.8008Z" fill="#FF7010"/>
</svg>
