<svg width="24" height="16" viewBox="0 0 24 16" fill="none" xmlns="http://www.w3.org/2000/svg">
<path d="M14.5944 10.5364C11.4027 10.5364 8.39458 11.0059 5.89554 11.8941C5.27865 12.1133 4.63648 12.2246 3.98702 12.2245C3.18611 12.2245 2.41004 12.0537 1.70169 11.7391C2.28354 13.9025 4.26536 15.5 6.61438 15.5H18.2332C20.6063 15.5 22.6048 13.8696 23.1635 11.6723C22.9372 11.6715 22.7121 11.6402 22.4944 11.5786C20.0848 10.8968 17.353 10.5364 14.5944 10.5364Z" fill="#FF7010"/>
<path d="M7.53093 9.68934C8.52777 9.44672 9.56998 9.2583 10.6403 9.12534C8.55365 6.84476 8.35926 3.0059 10.2628 0.5C8.73011 0.547147 7.23382 0.797699 5.84064 1.23078C5.12682 1.91458 4.62026 2.79534 4.39474 3.76356C3.78508 6.16873 5.20751 8.83882 7.53093 9.68934Z" fill="#FF7010"/>
<path d="M5.3279 10.3416C3.24127 8.78069 2.15468 6.08262 2.782 3.3895C2.86115 3.04972 2.96784 2.71859 3.09738 2.39771C2.54445 2.70631 2.02244 3.04961 1.53812 3.42618C-1.4682 5.74994 0.243616 10.5814 3.98704 10.5723C4.43255 10.5723 4.88525 10.4974 5.3279 10.3416Z" fill="#FF7010"/>
<path d="M19.4592 2.91956C18.7295 3.27839 18.141 3.86729 17.7836 4.60501C17.1825 5.84527 17.3329 7.28716 18.1324 8.36527C18.2561 8.53194 18.7103 9.03304 18.7525 9.14678C20.1952 9.33052 21.6074 9.61026 22.9462 9.98909C23.2244 10.0679 23.5239 9.99587 23.7358 9.79929C23.9477 9.60272 24.0414 9.30997 23.9829 9.0272C23.4771 6.58216 21.8179 4.44424 19.4592 2.91956Z" fill="#FF7010"/>
<path d="M12.8922 8.92855C14.0947 8.86643 15.3147 8.87089 16.5285 8.94139C15.6104 7.43114 15.4933 5.53572 16.2929 3.88563C16.6527 3.14317 17.1739 2.50487 17.8124 2.00911C16.2085 1.25597 14.3837 0.753432 12.4393 0.56958C9.80771 2.73581 10.0551 7.07687 12.8922 8.92855Z" fill="#FF7010"/>
</svg>
